<mxfile host="Electron" agent="Mozilla/5.0 (Macintosh; Intel Mac OS X 10_15_7) AppleWebKit/537.36 (KHTML, like Gecko) draw.io/24.7.17 Chrome/128.0.6613.36 Electron/32.0.1 Safari/537.36" version="24.7.17">
  <diagram name="Pagina-1" id="oOIHF54bX9MGyshZC2NH">
    <mxGraphModel dx="1187" dy="861" grid="1" gridSize="10" guides="1" tooltips="1" connect="1" arrows="1" fold="1" page="1" pageScale="1" pageWidth="827" pageHeight="1169" math="0" shadow="0">
      <root>
        <mxCell id="0" />
        <mxCell id="1" parent="0" />
        <mxCell id="zlFCVGh0BZ8W_rYo6WYp-21" value="" style="endArrow=none;html=1;rounded=0;fillColor=#e51400;strokeColor=#B20000;movable=1;resizable=1;rotatable=1;deletable=1;editable=1;locked=0;connectable=1;" edge="1" parent="1" source="zlFCVGh0BZ8W_rYo6WYp-22">
          <mxGeometry width="50" height="50" relative="1" as="geometry">
            <mxPoint x="581" y="389" as="sourcePoint" />
            <mxPoint x="551" y="389" as="targetPoint" />
          </mxGeometry>
        </mxCell>
        <mxCell id="zlFCVGh0BZ8W_rYo6WYp-22" value="" style="shape=waypoint;sketch=0;fillStyle=solid;size=6;pointerEvents=1;points=[];fillColor=#e51400;resizable=1;rotatable=1;perimeter=centerPerimeter;snapToPoint=1;strokeColor=#B20000;rotation=-90;movable=1;deletable=1;editable=1;locked=0;connectable=1;container=0;fontColor=#ffffff;" vertex="1" parent="1">
          <mxGeometry x="569" y="379" width="20" height="20" as="geometry" />
        </mxCell>
        <mxCell id="zlFCVGh0BZ8W_rYo6WYp-31" value="" style="endArrow=none;html=1;rounded=0;fillColor=#e51400;strokeColor=#B20000;movable=1;resizable=1;rotatable=1;deletable=1;editable=1;locked=0;connectable=1;" edge="1" parent="1" source="zlFCVGh0BZ8W_rYo6WYp-32">
          <mxGeometry width="50" height="50" relative="1" as="geometry">
            <mxPoint x="581" y="419" as="sourcePoint" />
            <mxPoint x="551" y="419" as="targetPoint" />
          </mxGeometry>
        </mxCell>
        <mxCell id="zlFCVGh0BZ8W_rYo6WYp-32" value="" style="shape=waypoint;sketch=0;fillStyle=solid;size=6;pointerEvents=1;points=[];fillColor=#e51400;resizable=0;rotatable=0;perimeter=centerPerimeter;snapToPoint=1;strokeColor=#B20000;rotation=-90;container=0;fontColor=#ffffff;" vertex="1" parent="1">
          <mxGeometry x="569" y="409" width="20" height="20" as="geometry" />
        </mxCell>
        <mxCell id="zlFCVGh0BZ8W_rYo6WYp-23" value="" style="group;rotation=90;" vertex="1" connectable="0" parent="1">
          <mxGeometry x="260" y="381" width="20" height="38" as="geometry" />
        </mxCell>
        <mxCell id="zlFCVGh0BZ8W_rYo6WYp-24" value="" style="endArrow=none;html=1;rounded=0;fillColor=#e1d5e7;strokeColor=#000000;" edge="1" parent="zlFCVGh0BZ8W_rYo6WYp-23" source="zlFCVGh0BZ8W_rYo6WYp-25">
          <mxGeometry width="50" height="50" relative="1" as="geometry">
            <mxPoint x="-1" y="19" as="sourcePoint" />
            <mxPoint x="29" y="19" as="targetPoint" />
          </mxGeometry>
        </mxCell>
        <mxCell id="zlFCVGh0BZ8W_rYo6WYp-25" value="" style="shape=waypoint;sketch=0;fillStyle=solid;size=6;pointerEvents=1;points=[];fillColor=#e1d5e7;resizable=0;rotatable=0;perimeter=centerPerimeter;snapToPoint=1;strokeColor=#000000;rotation=90;" vertex="1" parent="zlFCVGh0BZ8W_rYo6WYp-23">
          <mxGeometry x="-9" y="9" width="20" height="20" as="geometry" />
        </mxCell>
        <mxCell id="zlFCVGh0BZ8W_rYo6WYp-1" value="Shift_Register" style="rounded=0;whiteSpace=wrap;html=1;movable=1;resizable=1;rotatable=1;deletable=1;editable=1;locked=0;connectable=1;" vertex="1" parent="1">
          <mxGeometry x="280" y="360" width="280" height="80" as="geometry" />
        </mxCell>
        <mxCell id="zlFCVGh0BZ8W_rYo6WYp-2" value="" style="endArrow=none;html=1;rounded=0;fillColor=#e1d5e7;strokeColor=#000000;" edge="1" source="zlFCVGh0BZ8W_rYo6WYp-3" parent="1">
          <mxGeometry width="50" height="50" relative="1" as="geometry">
            <mxPoint x="319.87" y="470" as="sourcePoint" />
            <mxPoint x="319.87" y="440" as="targetPoint" />
          </mxGeometry>
        </mxCell>
        <mxCell id="zlFCVGh0BZ8W_rYo6WYp-3" value="" style="shape=waypoint;sketch=0;fillStyle=solid;size=6;pointerEvents=1;points=[];fillColor=#e1d5e7;resizable=0;rotatable=0;perimeter=centerPerimeter;snapToPoint=1;strokeColor=#000000;" vertex="1" parent="1">
          <mxGeometry x="310" y="458" width="20" height="20" as="geometry" />
        </mxCell>
        <mxCell id="zlFCVGh0BZ8W_rYo6WYp-4" value="" style="endArrow=none;html=1;rounded=0;fillColor=#e1d5e7;strokeColor=#000000;" edge="1" parent="1" source="zlFCVGh0BZ8W_rYo6WYp-5">
          <mxGeometry width="50" height="50" relative="1" as="geometry">
            <mxPoint x="299.87" y="470" as="sourcePoint" />
            <mxPoint x="299.87" y="440" as="targetPoint" />
          </mxGeometry>
        </mxCell>
        <mxCell id="zlFCVGh0BZ8W_rYo6WYp-5" value="" style="shape=waypoint;sketch=0;fillStyle=solid;size=6;pointerEvents=1;points=[];fillColor=#e1d5e7;resizable=0;rotatable=0;perimeter=centerPerimeter;snapToPoint=1;strokeColor=#000000;" vertex="1" parent="1">
          <mxGeometry x="290" y="458" width="20" height="20" as="geometry" />
        </mxCell>
        <mxCell id="zlFCVGh0BZ8W_rYo6WYp-6" value="clk" style="text;html=1;align=center;verticalAlign=middle;whiteSpace=wrap;rounded=0;" vertex="1" parent="1">
          <mxGeometry x="285" y="470" width="30" height="30" as="geometry" />
        </mxCell>
        <mxCell id="zlFCVGh0BZ8W_rYo6WYp-7" value="rst" style="text;html=1;align=center;verticalAlign=middle;whiteSpace=wrap;rounded=0;" vertex="1" parent="1">
          <mxGeometry x="305" y="470" width="30" height="30" as="geometry" />
        </mxCell>
        <mxCell id="zlFCVGh0BZ8W_rYo6WYp-8" value="" style="endArrow=none;html=1;rounded=0;fillColor=#e1d5e7;strokeColor=#000000;" edge="1" parent="1" source="zlFCVGh0BZ8W_rYo6WYp-9">
          <mxGeometry width="50" height="50" relative="1" as="geometry">
            <mxPoint x="539.87" y="470" as="sourcePoint" />
            <mxPoint x="539.87" y="440" as="targetPoint" />
          </mxGeometry>
        </mxCell>
        <mxCell id="zlFCVGh0BZ8W_rYo6WYp-9" value="" style="shape=waypoint;sketch=0;fillStyle=solid;size=6;pointerEvents=1;points=[];fillColor=#e1d5e7;resizable=0;rotatable=0;perimeter=centerPerimeter;snapToPoint=1;strokeColor=#000000;" vertex="1" parent="1">
          <mxGeometry x="530" y="458" width="20" height="20" as="geometry" />
        </mxCell>
        <mxCell id="zlFCVGh0BZ8W_rYo6WYp-10" value="" style="endArrow=none;html=1;rounded=0;fillColor=#e1d5e7;strokeColor=#000000;" edge="1" parent="1" source="zlFCVGh0BZ8W_rYo6WYp-11">
          <mxGeometry width="50" height="50" relative="1" as="geometry">
            <mxPoint x="499.87" y="470" as="sourcePoint" />
            <mxPoint x="499.87" y="440" as="targetPoint" />
          </mxGeometry>
        </mxCell>
        <mxCell id="zlFCVGh0BZ8W_rYo6WYp-11" value="" style="shape=waypoint;sketch=0;fillStyle=solid;size=6;pointerEvents=1;points=[];fillColor=#e1d5e7;resizable=0;rotatable=0;perimeter=centerPerimeter;snapToPoint=1;strokeColor=#000000;" vertex="1" parent="1">
          <mxGeometry x="490" y="458" width="20" height="20" as="geometry" />
        </mxCell>
        <mxCell id="zlFCVGh0BZ8W_rYo6WYp-12" value="en_wrt" style="text;html=1;align=center;verticalAlign=middle;whiteSpace=wrap;rounded=0;" vertex="1" parent="1">
          <mxGeometry x="485" y="470" width="30" height="30" as="geometry" />
        </mxCell>
        <mxCell id="zlFCVGh0BZ8W_rYo6WYp-13" value="en_shf" style="text;html=1;align=center;verticalAlign=middle;whiteSpace=wrap;rounded=0;" vertex="1" parent="1">
          <mxGeometry x="525" y="470" width="30" height="30" as="geometry" />
        </mxCell>
        <mxCell id="zlFCVGh0BZ8W_rYo6WYp-16" value="" style="group;rotation=-180;" vertex="1" connectable="0" parent="1">
          <mxGeometry x="350" y="322" width="20" height="38" as="geometry" />
        </mxCell>
        <mxCell id="zlFCVGh0BZ8W_rYo6WYp-14" value="" style="endArrow=none;html=1;rounded=0;fillColor=#e1d5e7;strokeColor=#000000;" edge="1" parent="zlFCVGh0BZ8W_rYo6WYp-16" source="zlFCVGh0BZ8W_rYo6WYp-15">
          <mxGeometry width="50" height="50" relative="1" as="geometry">
            <mxPoint x="10" y="8" as="sourcePoint" />
            <mxPoint x="10" y="38" as="targetPoint" />
          </mxGeometry>
        </mxCell>
        <mxCell id="zlFCVGh0BZ8W_rYo6WYp-15" value="" style="shape=waypoint;sketch=0;fillStyle=solid;size=6;pointerEvents=1;points=[];fillColor=#e1d5e7;resizable=0;rotatable=0;perimeter=centerPerimeter;snapToPoint=1;strokeColor=#000000;rotation=-180;" vertex="1" parent="zlFCVGh0BZ8W_rYo6WYp-16">
          <mxGeometry width="20" height="20" as="geometry" />
        </mxCell>
        <mxCell id="zlFCVGh0BZ8W_rYo6WYp-17" value="" style="group;rotation=-180;" vertex="1" connectable="0" parent="1">
          <mxGeometry x="470" y="322" width="20" height="38" as="geometry" />
        </mxCell>
        <mxCell id="zlFCVGh0BZ8W_rYo6WYp-18" value="" style="endArrow=none;html=1;rounded=0;fillColor=#e1d5e7;strokeColor=#000000;" edge="1" parent="zlFCVGh0BZ8W_rYo6WYp-17" source="zlFCVGh0BZ8W_rYo6WYp-19">
          <mxGeometry width="50" height="50" relative="1" as="geometry">
            <mxPoint x="10" y="8" as="sourcePoint" />
            <mxPoint x="10" y="38" as="targetPoint" />
          </mxGeometry>
        </mxCell>
        <mxCell id="zlFCVGh0BZ8W_rYo6WYp-19" value="" style="shape=waypoint;sketch=0;fillStyle=solid;size=6;pointerEvents=1;points=[];fillColor=#e1d5e7;resizable=0;rotatable=0;perimeter=centerPerimeter;snapToPoint=1;strokeColor=#000000;rotation=-180;" vertex="1" parent="zlFCVGh0BZ8W_rYo6WYp-17">
          <mxGeometry width="20" height="20" as="geometry" />
        </mxCell>
        <mxCell id="zlFCVGh0BZ8W_rYo6WYp-26" value="bit_in" style="text;html=1;align=center;verticalAlign=middle;whiteSpace=wrap;rounded=0;" vertex="1" parent="1">
          <mxGeometry x="220" y="385" width="30" height="30" as="geometry" />
        </mxCell>
        <mxCell id="zlFCVGh0BZ8W_rYo6WYp-27" value="value_rst" style="text;html=1;align=center;verticalAlign=middle;whiteSpace=wrap;rounded=0;" vertex="1" parent="1">
          <mxGeometry x="345" y="304" width="30" height="30" as="geometry" />
        </mxCell>
        <mxCell id="zlFCVGh0BZ8W_rYo6WYp-28" value="value_in" style="text;html=1;align=center;verticalAlign=middle;whiteSpace=wrap;rounded=0;" vertex="1" parent="1">
          <mxGeometry x="465" y="304" width="30" height="30" as="geometry" />
        </mxCell>
        <mxCell id="zlFCVGh0BZ8W_rYo6WYp-33" value="value_out" style="text;html=1;align=center;verticalAlign=middle;whiteSpace=wrap;rounded=0;" vertex="1" parent="1">
          <mxGeometry x="600" y="374" width="30" height="30" as="geometry" />
        </mxCell>
        <mxCell id="zlFCVGh0BZ8W_rYo6WYp-34" value="bit_out" style="text;html=1;align=center;verticalAlign=middle;whiteSpace=wrap;rounded=0;" vertex="1" parent="1">
          <mxGeometry x="589" y="404" width="30" height="30" as="geometry" />
        </mxCell>
      </root>
    </mxGraphModel>
  </diagram>
</mxfile>
